<?xml version="1.0" encoding="iso-8859-1"?>
<!-- Generator: Adobe Illustrator 16.0.0, SVG Export Plug-In . SVG Version: 6.00 Build 0)  -->
<!DOCTYPE svg PUBLIC "-//W3C//DTD SVG 1.1//EN" "http://www.w3.org/Graphics/SVG/1.1/DTD/svg11.dtd">
<svg version="1.1" id="Capa_1" xmlns="http://www.w3.org/2000/svg" xmlns:xlink="http://www.w3.org/1999/xlink" x="0px" y="0px"
	 width="485.213px" height="485.212px" viewBox="0 0 485.213 485.212" style="enable-background:new 0 0 485.213 485.212;"
	 xml:space="preserve">
<g>
	<path d="M454.89,0H30.328C13.565,0,0.001,13.579,0.001,30.327v424.56c0,16.764,13.564,30.326,30.327,30.326H454.89
		c16.759,0,30.322-13.562,30.322-30.326V30.327C485.212,13.579,471.648,0,454.89,0z M90.979,454.886H30.328v-60.649h60.651V454.886z
		 M90.979,333.584H30.328V272.93h60.651V333.584z M90.979,212.282H30.328v-60.653h60.651V212.282z M90.979,90.978H30.328V30.327
		h60.651V90.978z M363.909,454.886H121.305V272.93h242.604V454.886z M363.909,212.282H121.305V30.327h242.604V212.282z
		 M454.89,454.886h-60.653v-60.649h60.653V454.886z M454.89,333.584h-60.653V272.93h60.653V333.584z M454.89,212.282h-60.653
		v-60.653h60.653V212.282z M454.89,90.978h-60.653V30.327h60.653V90.978z"/>
</g>
<g>
</g>
<g>
</g>
<g>
</g>
<g>
</g>
<g>
</g>
<g>
</g>
<g>
</g>
<g>
</g>
<g>
</g>
<g>
</g>
<g>
</g>
<g>
</g>
<g>
</g>
<g>
</g>
<g>
</g>
</svg>
